<?xml version="1.0" encoding="utf-8"?>
<!-- Generator: Adobe Illustrator 24.3.0, SVG Export Plug-In . SVG Version: 6.00 Build 0)  -->
<svg version="1.1" id="Layer_1" xmlns="http://www.w3.org/2000/svg" xmlns:xlink="http://www.w3.org/1999/xlink" x="0px" y="0px"
	 viewBox="0 0 803.3 769.1" style="enable-background:new 0 0 803.3 769.1;" xml:space="preserve">
<style type="text/css">
	.st0{fill:#FFFFFF;stroke:#ABABAB;stroke-width:3;stroke-miterlimit:10;}
	.st1{fill:#F68725;}
</style>
<path d="M214.7,303.6l144.8,114.3l11.3-13L225.3,287.6c0,0,35.3-11,44-29c0,0-64.2,13.3-109.6-13c0,0,35.2,56.5,33.1,104.2
	C192.8,349.7,211.2,338.3,214.7,303.6z"/>
<path d="M386.1,615.6l0.9-179.7l-16.8-0.5l-2.7,182.1c0,0-29.7-19.7-48.7-15.1c0,0,48.9,40,55.8,90.5c0,0,22.4-61.5,60.3-89.5
	C434.8,603.5,414.9,596.7,386.1,615.6z"/>
<path d="M527.3,285.5l-139.7,113l10.3,13.3l142.8-113.1c0,0,3.5,35.5,19.1,47.3c0,0,0.1-63.1,34.7-100.4c0,0-61.7,21.6-107.4,9.9
	C487.1,255.5,494.4,275.1,527.3,285.5z"/>
<circle class="st0" cx="377.7" cy="417.8" r="19.8"/>
<path class="st1" d="M395.8,177.6c17.3,0,55.2,2.1,115.4,16.1c56.9,13.3,91.8,32,106.2,40.9c3.5,39.8,9.3,193.3-92.3,341.5
	c-52.7,76.8-123.6,124.4-147.5,136.1c-23.9-11.7-94.8-59.3-147.5-136.1C129,428.5,134.4,274.4,137.9,234.6
	c14.5-8.9,49.4-27.6,106.2-40.9c60.2-14,98.2-16.1,115.4-16.1c9.7,0,14.5,0.6,14.5,0.6c0,0,0,0,0,0l3.6,0.5l3.4-0.5
	C381.1,178.2,386,177.6,395.8,177.6 M395.8,154c-12.3,0-18.1,0.9-18.1,0.9s-5.9-0.9-18.1-0.9c-20.8,0-60.2,2.6-120.8,16.8
	c-83.9,19.6-123.1,50.3-123.1,50.3s-28.9,187.4,95.1,368.2c65.1,95,153.8,145.4,166.9,148c13.1-2.6,101.8-53.1,166.9-148
	c124-180.9,95.1-368.2,95.1-368.2s-39.2-30.8-123.1-50.3C456,156.7,416.6,154,395.8,154L395.8,154z"/>
</svg>
